<svg width="64" height="64" viewBox="0 0 64 64" fill="none" xmlns="http://www.w3.org/2000/svg" style="">
<g clip-path="url(#clip0_307_12179)">
<path d="M37.2245 63.3469H11.1021C5.33124 63.3469 0.653076 58.6688 0.653076 52.8979V26.7755C0.653076 21.0047 5.33124 16.3265 11.1021 16.3265H37.2245C42.9953 16.3265 47.6735 21.0047 47.6735 26.7755V52.8979C47.6735 58.6688 42.9953 63.3469 37.2245 63.3469Z" stroke="#D100C9" stroke-width="2" class="iZOKtspx_0"></path>
<path d="M52.898 47.6735H26.7755C21.0047 47.6735 16.3265 42.9953 16.3265 37.2245V11.102C16.3265 5.33122 21.0047 0.653053 26.7755 0.653053H52.898C58.6688 0.653053 63.3469 5.33122 63.3469 11.102V37.2245C63.3469 42.9953 58.6688 47.6735 52.898 47.6735Z" stroke="#D100C9" stroke-width="2" class="iZOKtspx_1"></path>
<path d="M45.0612 55.5102H18.9387C13.1679 55.5102 8.48975 50.832 8.48975 45.0612V18.9388C8.48975 13.168 13.1679 8.48978 18.9387 8.48978H45.0612C50.832 8.48978 55.5102 13.168 55.5102 18.9388V45.0612C55.5102 50.832 50.832 55.5102 45.0612 55.5102Z" stroke="#D100C9" stroke-width="2" class="iZOKtspx_2"></path>
</g>
<defs>
<clipPath id="clip0_307_12179">
<path width="64" height="64" fill="white" d="M0 0 L64 0 L64 64 L0 64 Z" class="iZOKtspx_3"></path>
</clipPath>
</defs>
<style data-made-with="vivus-instant">.iZOKtspx_0{stroke-dasharray:171 173;stroke-dashoffset:172;animation:iZOKtspx_draw 1000ms ease-out 0ms forwards;}.iZOKtspx_1{stroke-dasharray:171 173;stroke-dashoffset:172;animation:iZOKtspx_draw 1000ms ease-out 166ms forwards;}.iZOKtspx_2{stroke-dasharray:171 173;stroke-dashoffset:172;animation:iZOKtspx_draw 1000ms ease-out 333ms forwards;}.iZOKtspx_3{stroke-dasharray:256 258;stroke-dashoffset:257;animation:iZOKtspx_draw 1000ms ease-out 500ms forwards;}@keyframes iZOKtspx_draw{100%{stroke-dashoffset:0;}}@keyframes iZOKtspx_fade{0%{stroke-opacity:1;}92.98245614035088%{stroke-opacity:1;}100%{stroke-opacity:0;}}</style></svg>
