<svg width="64" height="64" viewBox="0 0 64 64" fill="none" xmlns="http://www.w3.org/2000/svg" style="">
<g clip-path="url(#clip0_307_12163)">
<path d="M52.898 55.5102H11.1021C5.33124 55.5102 0.653076 50.832 0.653076 45.0612V18.9388C0.653076 13.168 5.33124 8.48978 11.1021 8.48978H52.898C58.6688 8.48978 63.347 13.168 63.347 18.9388V45.0612C63.347 50.832 58.6688 55.5102 52.898 55.5102Z" stroke="#D100C9" stroke-width="2" class="KJeRGTQW_0"></path>
<path d="M42.449 47.6735H21.551C18.6656 47.6735 16.3265 45.3344 16.3265 42.449V21.551C16.3265 18.6656 18.6656 16.3265 21.551 16.3265H42.449C45.3344 16.3265 47.6735 18.6656 47.6735 21.551V42.449C47.6735 45.3344 45.3344 47.6735 42.449 47.6735Z" stroke="#D100C9" stroke-width="2" class="KJeRGTQW_1"></path>
<path d="M45.0612 63.3469H18.9388C13.168 63.3469 8.48981 58.6688 8.48981 52.8979V11.102C8.48981 5.33121 13.168 0.653046 18.9388 0.653046H45.0612C50.832 0.653046 55.5102 5.33121 55.5102 11.102V52.8979C55.5102 58.6688 50.832 63.3469 45.0612 63.3469Z" stroke="#D100C9" stroke-width="2" class="KJeRGTQW_2"></path>
</g>
<defs>
<clipPath id="clip0_307_12163">
<path width="64" height="64" fill="white" d="M0 0 L64 0 L64 64 L0 64 Z" class="KJeRGTQW_3"></path>
</clipPath>
</defs>
<style data-made-with="vivus-instant">.KJeRGTQW_0{stroke-dasharray:202 204;stroke-dashoffset:203;animation:KJeRGTQW_draw 1000ms ease-out 0ms forwards;}.KJeRGTQW_1{stroke-dasharray:117 119;stroke-dashoffset:118;animation:KJeRGTQW_draw 1000ms ease-out 166ms forwards;}.KJeRGTQW_2{stroke-dasharray:202 204;stroke-dashoffset:203;animation:KJeRGTQW_draw 1000ms ease-out 333ms forwards;}.KJeRGTQW_3{stroke-dasharray:256 258;stroke-dashoffset:257;animation:KJeRGTQW_draw 1000ms ease-out 500ms forwards;}@keyframes KJeRGTQW_draw{100%{stroke-dashoffset:0;}}@keyframes KJeRGTQW_fade{0%{stroke-opacity:1;}92.98245614035088%{stroke-opacity:1;}100%{stroke-opacity:0;}}</style></svg>
