<svg width="182" height="50" viewBox="0 0 182 50" fill="none" xmlns="http://www.w3.org/2000/svg">
<g clip-path="url(#clip0_309_12391)">
<path fill-rule="evenodd" clip-rule="evenodd" d="M60.0968 31.9623C60.8938 31.9122 61.8814 31.9122 62.4228 31.9122C66.1524 31.9122 68.1576 32.5138 69.7517 33.8171C70.5627 34.4974 71.2059 35.3557 71.631 36.3252C72.0562 37.2946 72.2519 38.3491 72.203 39.4066C72.2409 40.4696 72.0367 41.5274 71.606 42.5C71.1752 43.4726 70.5292 44.3346 69.7166 45.0211C68.2528 46.2242 66.2727 46.9009 62.4528 46.9009C60.3825 46.9009 60.0968 46.6653 60.0968 45.0211V31.9623ZM56.5576 44.8155C56.5576 46.5651 56.2368 46.931 53.5298 46.931V47.6378H63.4404C72.7795 47.6378 76.063 42.8805 76.063 39.0406C76.0639 37.9648 75.817 36.9033 75.3415 35.9383C74.866 34.9734 74.1746 34.1309 73.3209 33.4762C71.3759 31.8821 67.9019 31.1753 63.0895 31.1753C61.8763 31.1753 60.2522 31.1753 58.5327 31.2254C57.1943 31.2756 54.4522 31.3808 53.5298 31.3808V32.0876C55.951 32.0626 56.5576 32.4787 56.5576 34.3836V44.8155Z" fill="black"/>
<path d="M78.8 32.0927C81.0007 32.0676 81.4118 32.6391 81.4118 34.0527V44.6852C81.4118 46.1741 81.3166 46.9862 78.8 46.931V47.6378H87.693V46.931C85.3971 46.9811 84.9509 46.4598 84.9509 44.4997V34.3435C84.9509 32.4887 85.5575 32.0977 87.693 32.0977V31.3909H78.8V32.0927Z" fill="black"/>
<path d="M91.0617 47.8734H91.8287C91.9442 47.7693 92.0799 47.6902 92.2275 47.641C92.375 47.5918 92.5311 47.5737 92.6859 47.5877C93.5782 47.5877 94.5658 48.0589 96.9569 48.0589C101.037 48.0589 103.81 46.2292 103.81 43.5372C103.81 38.4942 93.7386 37.4515 93.7386 33.9524C93.7386 32.8045 94.8214 31.8119 96.8617 31.8119C97.9559 31.8019 99.0294 32.1103 99.9515 32.6995C100.874 33.2887 101.604 34.1333 102.055 35.1305H103.013L102.311 31.08H101.514C101.396 31.1928 101.255 31.279 101.101 31.3326C100.947 31.3862 100.784 31.4061 100.621 31.3908C100.053 31.3669 99.4885 31.2964 98.9321 31.1803C98.1209 31.0392 97.299 30.9688 96.4757 30.9697C93.0669 30.9697 90.6406 32.5388 90.6406 34.7846C90.6406 39.3313 100.682 40.765 100.682 44.4245C100.682 45.9935 99.0574 47.1165 96.7314 47.1165C93.9893 47.1165 92.0142 45.7579 91.2171 43.3567H90.2596L91.0617 47.8734Z" fill="black"/>
<path d="M103.775 35.4363H104.697C105.178 32.7193 105.81 32.5639 107.69 32.5639H112.246V44.8707C112.246 46.5951 111.735 46.936 108.547 46.936V47.6428H119.48V46.936C116.131 46.936 115.781 46.6503 115.781 44.8707V32.5639H120.337C122.252 32.5639 122.889 32.7193 123.335 35.4363H124.257L123.686 30.9447H122.824C122.633 31.3357 122.378 31.3909 120.753 31.3909H107.274C106.751 31.4063 106.228 31.3812 105.71 31.3157C105.602 31.2974 105.5 31.255 105.412 31.1916C105.323 31.1282 105.25 31.0455 105.198 30.9497H104.336L103.775 35.4363Z" fill="black"/>
<path d="M142.52 47.6379L142.996 43.5373H142.134C141.277 46.0989 140.635 46.4648 137.417 46.4648H133.877C132.248 46.4648 131.998 46.2042 131.998 44.585V39.8327H136.935C138.69 39.8327 139.101 40.0683 139.327 41.9231H140.189V36.6645H139.327C139.136 38.4692 138.785 38.6496 136.935 38.6496H131.998V32.5639H137.607C139.647 32.5639 140.154 32.614 140.79 34.7596L140.951 35.306H141.808L141.522 31.3859H125.235V32.0927C127.406 32.0927 128.453 32.1478 128.453 33.8673V45.1264C128.453 46.5901 127.812 46.931 125.235 46.931V47.6379H142.52Z" fill="black"/>
<path d="M160.932 47.6379L163.389 43.6927H162.431C160.045 46.3596 159.849 46.4598 157.142 46.4598H153.859C152.395 46.4598 152.14 46.2493 152.14 45.1815V34.158C152.14 32.198 152.521 32.0927 155.964 32.0927V31.3859H145.512V32.0927C148.38 32.0426 148.605 32.5639 148.605 34.3385V44.6802C148.605 46.7456 148.064 46.926 145.512 46.926V47.6328H160.932" fill="black"/>
<path d="M179.32 47.6379L181.771 43.6927H180.814C178.422 46.3596 178.232 46.4598 175.525 46.4598H172.241C170.778 46.4598 170.522 46.2493 170.522 45.1815V34.158C170.522 32.198 170.903 32.0927 174.347 32.0927V31.3859H163.89V32.0927C166.757 32.0426 166.983 32.5639 166.983 34.3385V44.6802C166.983 46.7456 166.441 46.926 163.89 46.926V47.6328H179.32" fill="black"/>
<path d="M13.0552 19.3146C13.3008 17.7105 14.6593 16.5976 16.088 16.8332C17.5167 17.0688 18.4792 18.5627 18.2285 20.1668C17.9829 21.771 16.6244 22.8839 15.1957 22.6483C13.767 22.4126 12.8095 20.9188 13.0552 19.3146Z" fill="black"/>
<path d="M19.1609 20.3172C19.4065 18.7131 20.7651 17.6002 22.1937 17.8358C23.6224 18.0714 24.5799 19.5602 24.3393 21.1694C24.0937 22.7786 22.7351 23.8864 21.3065 23.6508C19.8728 23.4202 18.9103 21.9264 19.1609 20.3172Z" fill="black"/>
<path d="M25.2617 21.3249C25.5073 19.7207 26.8658 18.6079 28.2945 18.8435C29.7232 19.0791 30.6857 20.573 30.4401 22.1771C30.1944 23.7812 28.8359 24.8941 27.4072 24.6585C25.9735 24.4229 25.0161 22.929 25.2617 21.3249Z" fill="black"/>
<path d="M21.3015 26.7539C21.5471 25.1497 22.9056 24.0368 24.3343 24.2724C25.763 24.508 26.7205 26.0019 26.4749 27.6061C26.2292 29.2152 24.8707 30.3231 23.442 30.0875C22.0133 29.8519 21.0559 28.358 21.3015 26.7539Z" fill="black"/>
<path d="M15.2058 25.7111C15.4514 24.107 16.8099 22.9941 18.2386 23.2297C19.6673 23.4653 20.6248 24.9592 20.3792 26.5633C20.1335 28.1675 18.775 29.2803 17.3463 29.0447C15.9176 28.8091 14.9602 27.3153 15.2058 25.7111Z" fill="black"/>
<path d="M17.3463 31.9673C17.5919 30.3632 18.9504 29.2503 20.3791 29.4859C21.8078 29.7215 22.7703 31.2154 22.5196 32.8196C22.274 34.4237 20.9155 35.5366 19.4868 35.301C18.0631 35.0654 17.1006 33.5715 17.3463 31.9673Z" fill="black"/>
<path fill-rule="evenodd" clip-rule="evenodd" d="M19.7575 48.3096C20.9456 49.1267 21.3115 49.3773 22.1387 49.8836C22.4946 50.1594 22.7001 49.8736 22.6901 49.7583C24.3293 35.311 80.6549 34.2282 31.6532 0.96224C31.5379 0.87702 31.4277 0.987305 31.4728 1.12265C31.934 2.54633 32.2548 5.2032 31.563 6.58176C28.846 4.48635 25.8884 2.51124 21.9933 0.0348443C21.8228 -0.0754407 21.6273 0.0899867 21.7577 0.335621C28.6004 17.1892 -28.9533 11.3441 19.7575 48.3096ZM24.8607 6.34114C22.4846 19.1192 -16.441 15.0687 17.8275 42.1086C17.8528 42.1249 17.8725 42.1484 17.8841 42.1762C17.8958 42.2039 17.8988 42.2345 17.8927 42.264C17.8877 42.264 17.8827 42.2339 17.9027 42.1487C21.863 26.9795 59.3598 29.1501 25.2266 6.15566C25.0462 6.05039 24.9158 5.85488 24.8607 6.34114ZM20.3992 43.9283C20.9757 44.4145 20.9807 44.3744 21.3967 44.7002C29.1418 30.8094 67.5059 31.9022 35.1122 7.20337C35.0489 7.80607 34.9177 8.39969 34.7212 8.97294C59.9463 30.4334 24.3293 30.6289 20.3992 43.9282V43.9283Z" fill="black"/>
</g>
<defs>
<clipPath id="clip0_309_12391">
<rect width="181.771" height="50" fill="white"/>
</clipPath>
</defs>
</svg>
