<svg width="135" height="50" viewBox="0 0 135 50" fill="none" xmlns="http://www.w3.org/2000/svg">
<g clip-path="url(#clip0_309_12602)">
<path d="M16.0481 46.7502C16.7887 45.6673 17.1719 44.3797 17.1438 43.068C17.1854 41.9499 16.8808 40.8462 16.2717 39.9076C15.5968 38.975 14.7397 38.1889 13.7523 37.597C12.3075 36.7229 10.8144 35.9316 9.28001 35.2266C8.42379 34.8648 7.61522 34.3991 6.87244 33.8402C6.61523 33.6378 6.40719 33.3797 6.2639 33.0854C6.12062 32.7911 6.0458 32.4681 6.04507 32.1408C6.04282 31.8055 6.11601 31.4739 6.25923 31.1707C6.40244 30.8675 6.61202 30.6004 6.87244 30.3891C7.56165 29.8874 8.40793 29.6494 9.25765 29.7183C10.7157 29.7114 12.1578 30.0217 13.4839 30.6277C14.3712 31.0318 15.2303 31.495 16.0555 32.0141V27.5791C15.817 27.4523 15.4368 27.2585 14.8256 26.9902C13.922 26.618 12.9864 26.3286 12.0305 26.1256C10.8066 25.8573 9.55646 25.7273 8.30357 25.738C6.70232 25.7065 5.11395 26.0297 3.65241 26.6846C2.51982 27.1901 1.56263 28.0202 0.901958 29.0698C0.30552 30.0593 -0.00655082 31.1941 5.01086e-05 32.3495C-0.0307999 33.5048 0.274773 34.6443 0.879597 35.6292C1.48114 36.5817 2.27908 37.3949 3.22009 38.0144C4.32695 38.7119 5.49447 39.3081 6.70846 39.7958C7.73171 40.1789 8.70719 40.6792 9.61543 41.2866C9.97933 41.5152 10.2799 41.8316 10.4896 42.2067C10.6993 42.5818 10.8114 43.0035 10.8155 43.4333C10.7814 44.0247 10.5291 44.5825 10.1074 44.9986C9.61543 45.5501 8.6688 45.8259 7.20786 45.8259C5.80053 45.8343 4.40604 45.558 3.10828 45.0135C2.11559 44.5854 1.14979 44.0976 0.21621 43.5525V48.226C1.31903 48.6975 2.45821 49.0789 3.62259 49.3665C4.56799 49.6104 5.52944 49.7872 6.49975 49.8957C7.24513 49.9628 7.83398 49.9926 8.33338 49.9926C9.92555 50.0214 11.5073 49.7299 12.9845 49.1354C14.212 48.6445 15.2745 47.8147 16.0481 46.7427V46.7502ZM33.3483 43.1351L33.0799 43.3289C32.3824 43.8684 31.6334 44.3377 30.8438 44.7302C30.2987 44.9822 29.7075 45.1192 29.1071 45.1327C28.5847 45.144 28.0665 45.038 27.5906 44.8226C27.1146 44.6071 26.6929 44.2878 26.3566 43.8879C25.6765 43.0919 25.2416 42.1159 25.1044 41.0779C24.8738 39.6483 24.9862 38.1844 25.4324 36.8069C25.8338 35.5315 26.6137 34.4084 27.6685 33.5868C28.7394 32.7761 30.0526 32.3506 31.3954 32.3793H33.3557L33.3483 43.1351ZM33.2216 49.0981H38.9908V29.0698C37.6342 28.8611 36.6056 28.7195 35.8528 28.63C34.788 28.5206 33.7179 28.4708 32.6476 28.481C30.1106 28.4033 27.5817 28.8054 25.1938 29.6661C23.5414 30.2555 22.0822 31.2867 20.975 32.6476C20.1027 33.7957 19.5152 35.1342 19.2606 36.5534C19.0307 37.9015 19.0131 39.2772 19.2085 40.6306C19.4324 42.1863 19.9591 43.6829 20.7588 45.0358C21.4961 46.3149 22.5159 47.4087 23.7404 48.2335C24.8705 49.0124 26.2066 49.4379 27.5791 49.4559C28.4537 49.5003 29.3248 49.3153 30.1059 48.9193C30.8344 48.4744 31.5032 47.9384 32.0961 47.3241L33.229 46.2135L33.2216 49.0981ZM56.3283 49.0981H62.105V36.777C62.105 35.6739 62.0305 34.8763 61.9708 34.4813C61.7343 32.9469 61.0879 31.5048 60.0999 30.3071C59.1235 29.0996 57.6774 28.5108 55.6649 28.5108C54.5525 28.4637 53.4459 28.6943 52.4449 29.1816C51.3956 29.7918 50.3984 30.4873 49.4634 31.2612L48.3975 32.0513V28.8462H42.6655V49.046H48.3602V36.464L48.5317 36.2776C49.3278 35.3653 50.1979 34.5201 51.133 33.7508C51.8248 33.2032 52.6806 32.9039 53.563 32.9011C54.435 32.9011 55.9407 33.2365 56.2761 35.4801C56.3241 35.7608 56.3491 36.045 56.3507 36.3298L56.3283 49.0981ZM73.0471 49.4559C74.8327 49.4738 76.5879 48.9937 78.1157 48.0695L77.4896 43.1053C76.5382 43.8513 75.38 44.286 74.1727 44.3501C73.3826 44.3501 71.9962 44.0519 71.616 42.032C71.5382 41.539 71.5033 41.0402 71.5117 40.5412V32.8563H75.7752V28.2201H71.5564V21.0645H65.8095V41.3835C65.8037 42.1333 65.8686 42.882 66.0033 43.6196C66.2173 45.03 66.8752 46.3355 67.8817 47.3465C68.5922 48.0877 69.4575 48.6629 70.416 49.0311C71.2515 49.3273 72.1309 49.4811 73.0173 49.4857L73.0471 49.4559ZM93.5972 43.1277L93.2693 43.3811C92.5925 43.9103 91.869 44.3769 91.1077 44.7749C90.5622 45.0261 89.9712 45.1631 89.3709 45.1775C88.8487 45.1881 88.3306 45.0819 87.8547 44.8665C87.3789 44.6512 86.9571 44.3321 86.6205 43.9327C85.9377 43.1375 85.5001 42.1614 85.3608 41.1226C85.1293 39.6931 85.2418 38.229 85.6888 36.8516C86.0893 35.5758 86.8694 34.4525 87.9249 33.6315C88.9958 32.8208 90.309 32.3953 91.6518 32.424H93.6047L93.5972 43.1277ZM93.5003 49.0907H99.2547V29.0698C97.8906 28.8611 96.8694 28.712 96.1166 28.63C95.0543 28.5207 93.9868 28.471 92.9189 28.481C90.3695 28.399 87.8275 28.8011 85.4279 29.6661C83.7754 30.2555 82.3162 31.2867 81.209 32.6476C80.3358 33.7951 79.7481 35.1339 79.4947 36.5534C79.2653 37.9015 79.2477 39.2771 79.4425 40.6306C79.6658 42.1887 80.1926 43.6879 80.9929 45.0433C81.7301 46.3224 82.7499 47.4161 83.9744 48.241C85.1167 49.0056 86.4608 49.413 87.8355 49.4112C88.7101 49.456 89.5813 49.2709 90.3623 48.8745C91.094 48.431 91.7654 47.8949 92.3599 47.2794L93.478 46.1464L93.5003 49.0907ZM134.176 37.1646C134.189 36.2163 134.147 35.2681 134.049 34.3247C133.806 32.8268 133.147 31.4271 132.148 30.2848C131.149 29.0847 129.487 28.481 127.221 28.481C126.37 28.4663 125.524 28.6183 124.732 28.9282C124.041 29.2022 123.394 29.5737 122.809 30.0314C122.289 30.4423 121.81 30.9015 121.377 31.4029L120.811 32.0737L120.341 31.3283C119.827 30.4354 119.079 29.699 118.179 29.1975C117.278 28.6961 116.258 28.4484 115.228 28.481C114.121 28.4703 113.03 28.7532 112.068 29.3009C111.195 29.7797 110.408 30.4021 109.742 31.142L108.609 32.4687V28.8537H102.944V49.0758H108.617V35.8602L108.773 35.6813C109.449 34.8872 110.197 34.1585 111.009 33.5048C111.626 32.9969 112.395 32.7107 113.193 32.6924C113.515 32.6722 113.837 32.7239 114.136 32.8438C114.435 32.9638 114.704 33.1488 114.923 33.3856C115.301 33.8784 115.536 34.4667 115.601 35.085C115.679 35.9424 115.711 36.8033 115.698 37.664V49.046H121.377V35.3534L121.564 35.167C123.204 33.5048 124.598 32.6924 125.827 32.6924C126.618 32.6924 128.004 33.0501 128.354 35.4577C128.423 35.9841 128.458 36.5145 128.459 37.0454V49.0758H134.168L134.176 37.1646Z" fill="black"/>
<path d="M71.3328 1.49076V0H65.3698V1.42367C42.3066 1.76801 19.9647 9.51582 1.63989 23.5242C3.39497 22.6489 5.21096 21.9016 7.0737 21.288C21.5042 16.7561 35.5621 17.7922 44.3948 23.4049C50.5665 20.3041 58.3483 18.4705 67.345 18.4407C76.3417 18.4109 84.116 20.2967 90.2878 23.4049C99.1205 17.7922 113.186 16.7561 127.609 21.288C129.472 21.9014 131.288 22.6487 133.043 23.5242C115.266 9.93847 93.6941 2.23628 71.3328 1.49076Z" fill="black"/>
</g>
<defs>
<clipPath id="clip0_309_12602">
<rect width="134.168" height="50" fill="white"/>
</clipPath>
</defs>
</svg>
