<svg width="167" height="50" viewBox="0 0 167 50" fill="none" xmlns="http://www.w3.org/2000/svg">
<g clip-path="url(#clip0_309_12406)">
<path d="M66.3856 13.3435C67.153 13.3435 70.5299 13.1135 74.5974 16.1809C74.6827 16.2564 74.7376 16.3603 74.7517 16.4732C74.7658 16.5861 74.7383 16.7003 74.6742 16.7944L72.7555 19.5552C72.7241 19.6053 72.6819 19.6479 72.6319 19.6797C72.582 19.7116 72.5256 19.7319 72.4668 19.7393C72.408 19.7466 72.3483 19.7408 72.292 19.7222C72.2358 19.7036 72.1844 19.6728 72.1416 19.6319C71.6068 19.2318 71.0423 18.8729 70.4531 18.5582C69.2226 17.8998 67.8573 17.5325 66.4623 17.4846C65.1576 17.4846 63.0087 17.9447 63.0087 20.0153C63.0087 21.7024 64.4669 22.3159 69.0717 23.4662C72.0648 24.2331 75.5184 25.6901 75.5184 30.2147C75.5184 34.4325 72.0648 37.0398 67.2298 37.0398C64.3134 37.0398 60.3226 35.9662 57.79 33.4355C57.7533 33.4011 57.724 33.3595 57.704 33.3134C57.684 33.2672 57.6737 33.2174 57.6737 33.1671C57.6737 33.1168 57.684 33.0671 57.704 33.0209C57.724 32.9747 57.7533 32.9332 57.79 32.8987L60.0156 30.2914C60.0531 30.2463 60.1 30.2101 60.1531 30.1852C60.2061 30.1603 60.264 30.1474 60.3226 30.1474C60.3812 30.1474 60.4391 30.1603 60.4922 30.1852C60.5452 30.2101 60.5922 30.2463 60.6296 30.2914C62.4239 31.9778 64.7683 32.9584 67.2298 33.0521C71.2206 33.0521 71.0671 30.6748 71.0671 30.2914C71.0671 29.5245 70.5299 28.4509 68.5345 27.9141C66.5391 27.3773 61.7041 26.457 59.8621 24.3098C58.9539 23.2145 58.4886 21.8194 58.5575 20.3987C58.4807 17.7147 60.0924 13.3435 66.3856 13.3435Z" fill="black"/>
<path d="M86.8768 18.7883C85.8328 18.7973 84.8036 19.0355 83.8619 19.4861C82.9203 19.9366 82.0893 20.5886 81.4278 21.3957V19.6319C81.43 19.5709 81.4195 19.5101 81.3972 19.4533C81.3748 19.3965 81.3409 19.3449 81.2977 19.3018C81.2546 19.2586 81.2029 19.2248 81.1461 19.2024C81.0893 19.1801 81.0284 19.1696 80.9674 19.1718H77.3603C77.2992 19.1696 77.2384 19.1801 77.1816 19.2024C77.1247 19.2248 77.0731 19.2586 77.0299 19.3018C76.9867 19.3449 76.9529 19.3965 76.9305 19.4533C76.9081 19.5101 76.8977 19.5709 76.8998 19.6319V41.411C76.8977 41.472 76.9081 41.5328 76.9305 41.5896C76.9529 41.6464 76.9867 41.698 77.0299 41.7412C77.0731 41.7843 77.1247 41.8181 77.1816 41.8405C77.2384 41.8629 77.2992 41.8733 77.3603 41.8712H80.9674C81.0284 41.8733 81.0893 41.8629 81.1461 41.8405C81.2029 41.8181 81.2546 41.7843 81.2977 41.7412C81.3409 41.698 81.3748 41.6464 81.3972 41.5896C81.4195 41.5328 81.43 41.472 81.4278 41.411V34.6626C82.1262 35.45 82.9914 36.0719 83.9605 36.4831C84.9297 36.8944 85.9784 37.0846 87.0303 37.0399C90.1002 37.0399 95.0119 34.5859 95.0119 28.0675C95.0119 21.5491 90.4072 18.7883 86.8768 18.7883ZM85.8791 33.0521C83.4233 33.0521 81.3511 30.9049 81.3511 27.8374C81.3511 25.9969 82.5023 22.6994 85.8791 22.6994C89.256 22.6994 90.4839 25.3834 90.4839 27.8374C90.4839 30.2914 89.1025 33.0521 85.8791 33.0521Z" fill="black"/>
<path d="M105.449 18.7884C104.245 18.7813 103.05 19.012 101.935 19.4671C100.819 19.9223 99.8043 20.593 98.9487 21.4408C98.0931 22.2886 97.4134 23.2968 96.9486 24.4077C96.4838 25.5185 96.2429 26.7101 96.2399 27.9141C96.2353 29.1233 96.4741 30.321 96.942 31.4361C97.41 32.5512 98.0976 33.5609 98.9639 34.4051C99.8303 35.2493 100.858 35.9108 101.985 36.3503C103.112 36.7897 104.317 36.9982 105.526 36.9632C106.721 36.9582 107.902 36.7181 109.004 36.2568C110.105 35.7955 111.105 35.1219 111.946 34.2745C112.787 33.427 113.452 32.4224 113.905 31.318C114.357 30.2135 114.587 29.0308 114.582 27.8374C114.577 26.6441 114.337 25.4634 113.875 24.3628C113.414 23.2621 112.74 22.2632 111.891 21.4229C111.043 20.5826 110.038 19.9175 108.933 19.4654C107.827 19.0134 106.644 18.7833 105.449 18.7884ZM105.526 33.0522C104.865 33.0305 104.215 32.878 103.613 32.6035C103.011 32.329 102.469 31.9379 102.02 31.453C101.57 30.968 101.221 30.3988 100.993 29.7782C100.765 29.1576 100.662 28.4979 100.691 27.8374C100.691 24.5399 102.994 22.6994 105.526 22.6994C106.182 22.7162 106.829 22.8628 107.428 23.1308C108.027 23.3988 108.567 23.7828 109.016 24.2606C109.466 24.7384 109.816 25.3005 110.047 25.9145C110.278 26.5284 110.385 27.182 110.361 27.8374C110.361 31.3651 107.829 33.0522 105.526 33.0522Z" fill="black"/>
<path d="M126.248 22.6227V19.5552C126.25 19.4942 126.239 19.4334 126.217 19.3766C126.195 19.3198 126.161 19.2682 126.118 19.2251C126.074 19.1819 126.023 19.1481 125.966 19.1257C125.909 19.1034 125.848 19.0929 125.787 19.0951H121.643V14.8773C121.645 14.8163 121.635 14.7555 121.612 14.6987C121.59 14.6419 121.556 14.5903 121.513 14.5471C121.47 14.504 121.418 14.4702 121.361 14.4478C121.304 14.4254 121.243 14.415 121.182 14.4171H117.652C117.591 14.415 117.53 14.4254 117.473 14.4478C117.417 14.4702 117.365 14.504 117.322 14.5471C117.279 14.5903 117.245 14.6419 117.222 14.6987C117.2 14.7555 117.189 14.8163 117.192 14.8773V19.0951H115.426C115.365 19.0929 115.305 19.1034 115.248 19.1257C115.191 19.1481 115.139 19.1819 115.096 19.2251C115.053 19.2682 115.019 19.3198 114.997 19.3766C114.974 19.4334 114.964 19.4942 114.966 19.5552V22.6227C114.964 22.6837 114.974 22.7445 114.997 22.8013C115.019 22.858 115.053 22.9096 115.096 22.9528C115.139 22.9959 115.191 23.0298 115.248 23.0521C115.305 23.0745 115.365 23.0849 115.426 23.0828H117.192V31.8251C117.192 33.819 118.113 36.8865 122.027 36.8865C123.383 36.8678 124.719 36.5538 125.941 35.9662C126.011 35.9303 126.07 35.8753 126.111 35.8075C126.152 35.7397 126.172 35.6618 126.171 35.5828V32.592C126.175 32.5278 126.16 32.4639 126.13 32.4074C126.099 32.3509 126.053 32.304 125.998 32.2722C125.942 32.2403 125.878 32.2246 125.814 32.2269C125.749 32.2292 125.687 32.2494 125.634 32.2852C125.031 32.7153 124.301 32.9312 123.562 32.8987C121.72 32.8987 121.566 31.5951 121.566 30.7515V23.0828H125.71C125.842 23.0894 125.971 23.0453 126.071 22.9597C126.171 22.8741 126.234 22.7535 126.248 22.6227Z" fill="black"/>
<path d="M130.238 17.0245C131.764 17.0245 133.001 15.7885 133.001 14.2638C133.001 12.7391 131.764 11.5031 130.238 11.5031C128.713 11.5031 127.476 12.7391 127.476 14.2638C127.476 15.7885 128.713 17.0245 130.238 17.0245Z" fill="black"/>
<path d="M131.39 36.5797H129.164C129.022 36.5829 128.881 36.5573 128.749 36.5044C128.617 36.4516 128.498 36.3726 128.397 36.2723C128.297 36.172 128.218 36.0523 128.165 35.9207C128.112 35.789 128.086 35.648 128.09 35.5061V20.2454C128.086 20.1035 128.112 19.9625 128.165 19.8308C128.218 19.6992 128.297 19.5796 128.397 19.4792C128.498 19.3789 128.617 19.2999 128.749 19.2471C128.881 19.1942 129.022 19.1686 129.164 19.1718H131.39C131.532 19.1686 131.673 19.1942 131.805 19.2471C131.936 19.2999 132.056 19.3789 132.156 19.4792C132.257 19.5796 132.336 19.6992 132.389 19.8308C132.442 19.9625 132.467 20.1035 132.464 20.2454V35.5061C132.467 35.648 132.442 35.789 132.389 35.9207C132.336 36.0523 132.257 36.172 132.156 36.2723C132.056 36.3726 131.936 36.4516 131.805 36.5044C131.673 36.5573 131.532 36.5829 131.39 36.5797Z" fill="black"/>
<path d="M136.378 23.0828H134.69C134.629 23.085 134.568 23.0745 134.511 23.0522C134.454 23.0298 134.403 22.996 134.359 22.9528C134.316 22.9097 134.282 22.8581 134.26 22.8013C134.238 22.7445 134.227 22.6837 134.229 22.6227V19.5552C134.227 19.4942 134.238 19.4334 134.26 19.3766C134.282 19.3198 134.316 19.2683 134.359 19.2251C134.403 19.1819 134.454 19.1481 134.511 19.1258C134.568 19.1034 134.629 19.093 134.69 19.0951H136.378V17.9448C136.378 17.1779 136.532 12.5 141.75 12.5C144.36 12.5 145.204 13.1135 145.204 13.1135V16.2577C145.204 16.5644 145.127 16.8712 144.744 16.7178C144.053 16.4743 143.327 16.3448 142.595 16.3344C142.338 16.3161 142.08 16.3532 141.839 16.4431C141.598 16.533 141.379 16.6736 141.197 16.8554C141.016 17.0372 140.875 17.256 140.785 17.4968C140.695 17.7377 140.658 17.9951 140.676 18.2515V19.0951H147.123C147.212 19.0947 147.299 19.125 147.369 19.1808C147.439 19.2366 147.487 19.3146 147.506 19.4018L152.034 31.135L156.102 19.4785C156.135 19.3991 156.187 19.3292 156.254 19.2755C156.321 19.2219 156.401 19.1862 156.486 19.1718H160.477C160.521 19.1738 160.564 19.1867 160.602 19.2094C160.64 19.2321 160.672 19.2639 160.695 19.3018C160.717 19.3398 160.73 19.3828 160.733 19.427C160.735 19.4712 160.726 19.5152 160.707 19.5552C159.786 21.9325 154.49 35.6595 153.8 37.3466C153.032 39.2638 151.804 41.8712 148.12 41.8712C146.689 41.9128 145.277 41.54 144.053 40.7976C143.974 40.7357 143.916 40.6504 143.889 40.554C143.861 40.4576 143.865 40.355 143.899 40.2607L145.204 37.5C145.215 37.4708 145.233 37.4447 145.256 37.424C145.279 37.4032 145.307 37.3884 145.337 37.3809C145.368 37.3733 145.399 37.3732 145.429 37.3806C145.46 37.388 145.488 37.4027 145.511 37.4233C146.179 37.8464 146.947 38.0846 147.737 38.1135C149.195 38.1135 149.809 36.4264 149.809 36.4264L144.283 23.1595H140.599V36.273C140.601 36.334 140.591 36.3948 140.569 36.4516C140.546 36.5084 140.512 36.56 140.469 36.6031C140.426 36.6463 140.374 36.6801 140.317 36.7025C140.261 36.7248 140.2 36.7353 140.139 36.7331H136.532C136.471 36.7353 136.41 36.7248 136.353 36.7025C136.296 36.6801 136.244 36.6463 136.201 36.6031C136.158 36.56 136.124 36.5084 136.102 36.4516C136.079 36.3948 136.069 36.334 136.071 36.273L136.378 23.0828Z" fill="black"/>
<path d="M163.086 20.322H164.391C164.546 20.3004 164.704 20.3171 164.851 20.3706C164.998 20.424 165.13 20.5127 165.235 20.6288C165.317 20.7226 165.38 20.8321 165.42 20.9506C165.459 21.0691 165.475 21.1944 165.465 21.319C165.475 21.5179 165.421 21.7148 165.31 21.8805C165.2 22.0462 165.039 22.172 164.851 22.2392L165.542 23.2362H164.774L164.16 22.3159H163.7V23.2362H163.086V20.322ZM164.391 21.7791C164.698 21.7791 164.851 21.6257 164.851 21.3957C164.851 21.0889 164.698 21.0122 164.314 21.0122H163.7V21.8558H164.391V21.7791Z" fill="black"/>
<path d="M164.237 24.6166C163.691 24.6166 163.157 24.4547 162.702 24.1513C162.248 23.8479 161.894 23.4168 161.685 22.9123C161.475 22.4079 161.421 21.8528 161.527 21.3172C161.634 20.7817 161.897 20.2898 162.283 19.9037C162.67 19.5176 163.162 19.2547 163.698 19.1481C164.234 19.0416 164.79 19.0963 165.294 19.3052C165.799 19.5142 166.231 19.868 166.534 20.322C166.838 20.776 167 21.3098 167 21.8558C166.99 22.5849 166.696 23.2814 166.18 23.797C165.664 24.3126 164.967 24.6066 164.237 24.6166ZM164.237 19.4018C163.586 19.4018 162.961 19.6604 162.501 20.1206C162.04 20.5808 161.781 21.205 161.781 21.8558C161.781 22.5067 162.04 23.1308 162.501 23.5911C162.961 24.0513 163.586 24.3098 164.237 24.3098C164.561 24.3139 164.882 24.2533 165.182 24.1314C165.482 24.0095 165.754 23.8289 165.983 23.6002C166.212 23.3715 166.392 23.0994 166.514 22.7998C166.636 22.5002 166.697 22.1792 166.693 21.8558C166.689 21.2062 166.429 20.5844 165.969 20.125C165.51 19.6657 164.887 19.4059 164.237 19.4018Z" fill="black"/>
<path d="M25.0193 0C20.071 0 15.2337 1.46622 11.1193 4.21326C7.00493 6.9603 3.79814 10.8648 1.90449 15.4329C0.0108405 20.0011 -0.484625 25.0277 0.48075 29.8773C1.44613 34.7268 3.82898 39.1814 7.32799 42.6777C10.827 46.174 15.285 48.555 20.1383 49.5196C24.9916 50.4843 30.0221 49.9892 34.5938 48.097C39.1655 46.2048 43.0729 43.0005 45.8221 38.8893C48.5713 34.778 50.0386 29.9445 50.0386 25C50.0366 18.3702 47.4 12.0125 42.7084 7.32458C38.0168 2.63661 31.6542 0.00203274 25.0193 0V0ZM36.4545 36.1196C36.2264 36.481 35.8663 36.7392 35.4507 36.8394C35.0351 36.9397 34.5968 36.874 34.2289 36.6564C24.4053 30.7515 12.6632 34.1258 12.5864 34.2025C12.1692 34.3132 11.7257 34.2646 11.3426 34.0661C10.9594 33.8675 10.664 33.5333 10.5143 33.1288C10.386 32.7119 10.4268 32.2613 10.6277 31.874C10.8287 31.4868 11.1738 31.1938 11.5887 31.0583C12.1259 30.9049 24.7891 27.1472 35.9173 33.819C36.2829 34.0623 36.5419 34.4356 36.6417 34.8631C36.7415 35.2905 36.6746 35.7398 36.4545 36.1196ZM39.6011 29.2178C39.4288 29.5147 39.183 29.7623 38.8874 29.9369C38.5917 30.1114 38.2561 30.2071 37.9127 30.2147C37.5673 30.2118 37.2267 30.1333 36.915 29.9847C24.5588 22.8528 12.0492 26.9939 11.8957 27.0706C11.6529 27.1546 11.3959 27.1897 11.1395 27.1738C10.883 27.1579 10.6323 27.0913 10.4018 26.9778C10.1714 26.8644 9.96572 26.7063 9.7968 26.5129C9.62789 26.3194 9.49908 26.0944 9.41784 25.8509C9.33659 25.6073 9.30452 25.3501 9.3235 25.0941C9.34247 24.838 9.4121 24.5883 9.52836 24.3594C9.64462 24.1305 9.8052 23.9268 10.0008 23.7604C10.1964 23.5939 10.4231 23.4679 10.6677 23.3896C15.3387 22.011 20.2395 21.5857 25.0784 22.139C29.9172 22.6923 34.5952 24.213 38.8336 26.6104C39.2778 26.858 39.6071 27.2698 39.7506 27.7574C39.8941 28.245 39.8404 28.7693 39.6011 29.2178ZM40.9825 22.4693C40.6006 22.486 40.2236 22.3784 39.9081 22.1626C25.6333 14.6472 10.9747 19.1718 10.8212 19.1718C10.5218 19.2757 10.2046 19.3188 9.88823 19.2986C9.57188 19.2783 9.26278 19.195 8.97907 19.0537C8.69537 18.9124 8.44279 18.7159 8.23617 18.4756C8.02955 18.2354 7.87306 17.9564 7.77589 17.6549C7.67872 17.3533 7.64283 17.0355 7.67033 16.7199C7.69783 16.4044 7.78816 16.0975 7.93602 15.8173C8.08388 15.5371 8.28629 15.2893 8.53135 15.0883C8.77641 14.8874 9.05918 14.7374 9.36306 14.6472C10.0538 14.4172 26.0938 9.5092 42.1337 17.9448C42.6903 18.2428 43.1071 18.7479 43.2938 19.3507C43.4805 19.9535 43.4222 20.6055 43.1314 21.1656C42.924 21.5562 42.6148 21.8836 42.2366 22.1131C41.8583 22.3425 41.425 22.4656 40.9825 22.4693Z" fill="black"/>
</g>
<defs>
<clipPath id="clip0_309_12406">
<rect width="167" height="50" fill="white"/>
</clipPath>
</defs>
</svg>
