<svg width="132" height="40" viewBox="0 0 132 40" fill="none" xmlns="http://www.w3.org/2000/svg">
<g clip-path="url(#clip0_309_12276)">
<g filter="url(#filter0_d_309_12276)">
<path d="M46.7284 39.4275L53.3311 0.674098H63.8982L57.2883 39.4275H46.7284ZM95.5924 1.63079C92.5585 0.531684 89.3537 -0.0204488 86.1269 6.29014e-05C75.6902 6.29014e-05 68.341 5.25464 68.2758 12.785C68.2178 18.3512 73.5231 21.4822 77.5311 23.3159C81.5391 25.1495 83.0249 26.4251 83.0031 28.1211C83.0031 30.7158 79.7199 31.9044 76.6831 31.9044C73.2512 32.0092 69.842 31.3145 66.7248 29.875L65.3622 29.259L63.9127 37.9562C66.3769 39.0361 70.943 39.9783 75.6757 40.0218C86.7792 40.0218 93.9834 34.8252 94.0703 26.7803C94.1066 22.3737 91.2945 19.018 85.1992 16.2494C81.5101 14.4592 79.2488 13.2633 79.2706 11.4442C79.2706 9.83518 81.184 8.11023 85.3224 8.11023C88.0302 8.03843 90.7233 8.53212 93.2296 9.55977L94.1791 10.0091L95.6286 1.60905L95.5924 1.63079ZM122.677 0.724832H114.516C111.987 0.724832 110.095 1.4496 108.986 3.93556L93.3021 39.4492H104.413C104.413 39.4492 106.225 34.673 106.638 33.6511H120.162C120.481 35.0064 121.445 39.4492 121.445 39.4492H131.229L122.677 0.724832ZM109.631 25.7004C110.53 23.4536 113.835 14.8578 113.835 14.8578C113.835 14.8578 114.705 12.611 115.234 11.1615L116.009 14.4954L118.452 25.6859L109.631 25.7004ZM37.8718 0.724832L27.5293 27.1282L26.4277 21.7431C24.4998 15.5536 18.5059 8.84225 11.8018 5.48656L21.2238 39.3768H32.3998L49.0622 0.724832H37.8718Z" fill="black"/>
<path d="M17.9406 0.681274H0.908519L0.770813 1.44953C14.0196 4.68925 22.7893 12.4443 26.4276 21.7431L22.7241 3.94998C22.0863 1.49302 20.2309 0.760999 17.9333 0.681274" fill="black"/>
</g>
</g>
<defs>
<filter id="filter0_d_309_12276" x="-3.22919" y="-0.000488281" width="138.458" height="48.0223" filterUnits="userSpaceOnUse" color-interpolation-filters="sRGB">
<feFlood flood-opacity="0" result="BackgroundImageFix"/>
<feColorMatrix in="SourceAlpha" type="matrix" values="0 0 0 0 0 0 0 0 0 0 0 0 0 0 0 0 0 0 127 0" result="hardAlpha"/>
<feOffset dy="4"/>
<feGaussianBlur stdDeviation="2"/>
<feComposite in2="hardAlpha" operator="out"/>
<feColorMatrix type="matrix" values="0 0 0 0 0 0 0 0 0 0 0 0 0 0 0 0 0 0 0.25 0"/>
<feBlend mode="normal" in2="BackgroundImageFix" result="effect1_dropShadow_309_12276"/>
<feBlend mode="normal" in="SourceGraphic" in2="effect1_dropShadow_309_12276" result="shape"/>
</filter>
<clipPath id="clip0_309_12276">
<rect width="130.458" height="40" fill="white" transform="translate(0.770813)"/>
</clipPath>
</defs>
</svg>
